# xmcd
#
# Track frame offsets:
#	150
#	14744
#	29470
#	45282
#	63214
#	80483
#	93994
#	109702
#	121221
#	137377
#	147695
#	163091
#	173515
#	190679
#	205270
#	219309
#	230696
#	244152
#	250019
#	258065
#
# Disc length: 3655 seconds
#
# Revision: 0
# Processed by: cddbd v1.5.2PL0 Copyright (c) Steve Scherf et al.
# Submitted via: EasyCDDAExtractor 16.0.8.1
#
DISCID=0b0e4514
DTITLE=Βασίλης Τσιτσάνης -  Βασίλης Τσιτσάνης 04
DYEAR=1900
DGENRE=
TTITLE0=Ελευθερία Αρβανιτάκη - Αραπικο Λουλουδι
TTITLE1=Κώστας Μακεδόνας - Θα Παω Εκει Στην Αραπια
TTITLE2=Ρεμπέτικη Κομπανία (Δημήτρης Κοντογιάννης, Γιώργος Σιδέρης) - Χαρεμια 
TTITLE2=Με διαμαντια
TTITLE3=Γλυκερία - Τα Λερωμενα Τ' Απλυτα
TTITLE4=Γιώργος Μαργαρίτης - Δε θελω Τα ΜΑτακια Σου (Μαζι Μου Δεν Ταιριαζεις)
TTITLE5=Σωτηρία Μπέλλου - ξημερωνει Και Βραδιαζει
TTITLE6=Πόλυς Κερμανίδης - Ασπρο Πουκαμισο Φορω
TTITLE7=Αλεξάνδρα - που Να Πω Τα Βασανα Μου
TTITLE8=Στέλιος Καζαντζίδης - Μπρος Στο Ρημαγμενο Σπιτι
TTITLE9=Μαριώ - τσιγγανε Σπασε το Βιολι
TTITLE10=Μανώλης Μητσιάς - ολα Εδω Πληρωνονται
TTITLE11=Μπάμπης Γκολές - Μελαχροινη Κοπελα
TTITLE12=Παντελής Χατζηκυριάκος - Φωτια
TTITLE13=φίλιππος Παπαφιλίππου, Δημήτρης Καραϊσάς< Διονύσης Ρούσος, Χρήστος Μη
TTITLE13=τεντζής  and Κώστας Βόμβολος - Στης Σαλονικης Τα Στενα
TTITLE14=Σωτηρία Μπέλλου - Ντερμπεντερισσα
TTITLE15=Περικλής Περάκης and γεωργία λόγγου - Αραμπας Περνα
TTITLE16=Λευτέρης Πανταζής and Χαρούλα Λαμπράκη - οταν Συμβει Στα Περιξ
TTITLE17=Αννα Χρυσάφη - Το Ξερα Πως Θα Μου Φυγεις
TTITLE18=Αννα Χρυσάφη - Μεινε Αγαπη Μου Κοντα Μου
TTITLE19=Μαρίκα Νίνου and Βασίλης Τσιτσάνης - Παιξτε Μπουζουκια
EXTD=
EXTT0=
EXTT1=
EXTT2=
EXTT3=
EXTT4=
EXTT5=
EXTT6=
EXTT7=
EXTT8=
EXTT9=
EXTT10=
EXTT11=
EXTT12=
EXTT13=
EXTT14=
EXTT15=
EXTT16=
EXTT17=
EXTT18=
EXTT19=
PLAYORDER=
